OpenSim_Sub06_CSStiffKnee_RCS.mot
version=1
nRows=47
nColumns=11
inDegrees=no
endheader
time	Top_Thigh	Med_Thigh	Bot_Thigh	Top_Shank	2nd_Top_Shank	2nd_Bot_Shank	Bot_Shank	BNOx	BNOy	BNOZ
53.73000000	1581.37645843	1897.03450104	1393.60076363	1175.97725502	1251.90038778	1002.25858565	1077.64862875	125.80089463	-66.94059398	104.47864797
53.74000000	1578.07357827	1891.27914886	1393.82031523	1172.95035546	1249.41560874	1002.46575861	1077.56304111	123.66681637	-68.06330234	109.90629640
53.75000000	1575.95341947	1886.26349416	1393.80833352	1169.51253165	1246.77225558	1002.31897929	1077.68790540	121.75937325	-69.04263176	115.16250785
53.76000000	1575.33005481	1882.42731191	1393.16567554	1165.56174098	1243.88942372	1001.66602513	1078.08340879	120.14537654	-69.87808251	120.09656907
53.77000000	1576.51755710	1880.21037708	1391.49319833	1160.99594090	1240.68620861	1000.35467358	1078.80973845	118.89163750	-70.56915490	124.55776683
53.78000000	1579.76695177	1879.98573475	1388.47175308	1155.75062742	1237.10701715	998.26694472	1079.91800173	118.05525862	-71.11546930	128.40917704
53.79000000	1584.86330487	1881.63325445	1384.37339772	1150.03873040	1233.28332380	995.53793313	1081.39220059	117.62158860	-71.51753361	131.61578619
53.80000000	1591.38283807	1884.81176301	1379.73517080	1144.19752637	1229.43044724	992.41616208	1083.18626018	117.54381590	-71.77625353	134.18825736
53.81000000	1598.90078794	1889.17904457	1375.09536075	1138.56487838	1225.76410163	989.15068994	1085.25396374	117.77497724	-71.89253664	136.13746910
53.82000000	1606.99239104	1894.39288327	1370.99225605	1133.47864950	1222.50000117	985.99057504	1087.54909452	118.26810939	-71.86729050	137.47429994
53.83000000	1615.23288393	1900.11106328	1367.96414512	1129.27670278	1219.85386002	983.18487571	1090.02543580	118.97624908	-71.70142270	138.20962845
53.84000000	1623.19750318	1905.99136874	1366.54931643	1126.29690128	1218.04139235	980.98265031	1092.63677082	119.85243305	-71.39584080	138.35433315
53.85000000	1630.46148534	1911.69158380	1367.28605843	1124.87710807	1217.27831235	979.63295717	1095.33688284	120.84969804	-70.95145239	137.91929259
53.86000000	1636.60006698	1916.86949263	1370.71265956	1125.35518619	1217.78033418	979.38485463	1098.07955512	121.92108081	-70.36916502	136.91538532
53.87000000	1641.19167011	1921.18502160	1377.36113116	1128.06512580	1219.76058842	980.48485975	1100.81858245	123.01979677	-69.65003177	135.35397740
53.88000000	1644.06117604	1924.46384361	1387.27782192	1133.04126787	1223.23231072	982.98287009	1103.50865225	124.11288566	-68.80636178	133.28415426
53.89000000	1645.45123169	1926.81258329	1399.68584860	1139.81002722	1227.86990105	986.59549942	1106.10596502	125.19082040	-67.86954409	130.81893829
53.90000000	1645.64495096	1928.36507978	1413.72858537	1147.84861829	1233.31493791	991.00707791	1108.56686783	126.24634377	-66.87281591	128.07754514
53.91000000	1644.92544777	1929.25517219	1428.54940642	1156.63425548	1239.20899985	995.90193574	1110.84770773	127.27219856	-65.84941443	125.17919047
53.92000000	1643.57583602	1929.61669966	1443.29168590	1165.64415322	1245.19366537	1000.96440306	1112.90483179	128.26112753	-64.83257688	122.24308993
53.93000000	1641.87922964	1929.58350131	1457.09879800	1174.35552593	1250.91051302	1005.87881005	1114.69458705	129.20587348	-63.85554044	119.38845918
53.94000000	1640.11874252	1929.28941626	1469.11411688	1182.24558802	1256.00112131	1010.32948687	1116.17332060	130.09917919	-62.95154234	116.73451388
53.95000000	1638.57602424	1928.86769758	1478.48645051	1188.79468002	1260.10926278	1014.00264075	1117.29776435	130.93382701	-62.15361355	114.39977937
53.96000000	1637.41942824	1928.40625384	1484.78502133	1193.72500924	1263.04846098	1016.72970742	1118.05442816	131.70566136	-61.47882956	112.44937037
53.97000000	1636.62526310	1927.91613160	1488.29168356	1197.16876405	1264.91997924	1018.58829509	1118.48029752	132.41571707	-60.91722014	110.85786699
53.98000000	1636.15123496	1927.40093214	1489.35732065	1199.29784576	1265.85295287	1019.67985750	1118.61724724	133.06553173	-60.45619530	109.59107964
53.99000000	1635.95504992	1926.86425677	1488.33281610	1200.28415565	1265.97651721	1020.10584840	1118.50715213	133.65664293	-60.08316504	108.61481874
54	1635.99441411	1926.30970676	1485.56905338	1200.29959504	1265.41980757	1019.96772154	1118.19188703	134.19058826	-59.78553935	107.89489472
54.01000000	1636.22703365	1925.74088342	1481.41691597	1199.51606521	1264.31195927	1019.36693068	1117.71332675	134.66890532	-59.55072823	107.39711800
54.02000000	1636.61061465	1925.16138802	1476.22728734	1198.10546748	1262.78210765	1018.40492956	1117.11334610	135.09313170	-59.36614167	107.08729900
54.03000000	1637.10286324	1924.57482187	1470.35105097	1196.23970314	1260.95938801	1017.18317194	1116.43381992	135.46480499	-59.21918969	106.93124815
54.04000000	1637.66148554	1923.98478626	1464.13909034	1194.09067349	1258.97293569	1015.80311157	1115.71662301	135.78546279	-59.09728226	106.89477586
54.05000000	1638.24418767	1923.39488247	1457.94228894	1191.83027983	1256.95188599	1014.36620220	1115.00363019	136.05664269	-58.98782940	106.94369255
54.06000000	1638.80867574	1922.80871179	1452.11153022	1189.63042345	1255.02537426	1012.97389757	1114.33671629	136.27988228	-58.87824109	107.04380865
54.07000000	1639.31265587	1922.22987552	1446.99769768	1187.66300567	1253.32253580	1011.72765145	1113.75775612	136.45671916	-58.75592734	107.16093459
54.08000000	1639.71383419	1921.66197495	1442.95167479	1186.09992778	1251.97250594	1010.72891759	1113.30862450	136.58869092	-58.60829815	107.26088077
54.09000000	1639.96991682	1921.10861136	1440.32434503	1185.11309108	1251.10442001	1010.07914972	1113.03119626	136.67733515	-58.42276350	107.30945763
54.10000000	1640.05087160	1920.57832681	1439.37956914	1184.82103194	1250.81207304	1009.85432229	1112.95228068	136.72888028	-58.19205745	107.27356672
54.11000000	1640.01728825	1920.11617858	1439.73805548	1184.94788649	1250.92807331	1009.94210154	1112.98734335	136.78422297	-57.94826202	107.12817381
54.12000000	1639.96446665	1919.77902274	1440.76735578	1185.06805354	1251.18318240	1010.15649811	1113.00987539	136.89598863	-57.73778243	106.85392974
54.13000000	1639.92691835	1919.57663976	1442.19608465	1185.03418673	1251.46471412	1010.42204803	1112.97499949	137.07754694	-57.57290826	106.45287945
54.14000000	1639.90318008	1919.49099251	1443.96666658	1184.86358707	1251.75266547	1010.72872625	1112.88613549	137.31906555	-57.44575356	105.93967922
54.15000000	1639.89132356	1919.50368432	1446.02428956	1184.57568359	1252.02823137	1011.06735350	1112.74732746	137.61041220	-57.34817164	105.32914829
54.16000000	1639.88942055	1919.59631852	1448.31414155	1184.18990531	1252.27260674	1011.42875051	1112.56261949	137.94145466	-57.27201579	104.63610593
54.17000000	1639.89554277	1919.75049842	1450.78141051	1183.72568129	1252.46698648	1011.80373803	1112.33605563	138.30206068	-57.20913930	103.87537140
54.18000000	1639.90776197	1919.94782736	1453.37128442	1183.20244054	1252.59256553	1012.18313679	1112.07167997	138.68209802	-57.15139549	103.06176396
54.19000000	1639.92414989	1920.16990867	1456.02895124	1182.63961211	1252.63053880	1012.55776752	1111.77353657	139.07143445	-57.09063765	102.21010286
